<svg width="57" height="56" viewBox="0 0 57 56" fill="none" xmlns="http://www.w3.org/2000/svg">
<g clip-path="url(#clip0_2738_3391)">
<path d="M54.564 20.3491L47.306 13.0911C45.7973 11.5824 43.7914 10.7515 41.6577 10.7515H15.3413C13.2076 10.7515 11.2017 11.5824 9.69296 13.0911L2.43494 20.349C0.830629 21.9534 0.702223 24.4891 2.13646 26.2472L25.0868 54.3798C25.9269 55.4096 27.1707 56.0001 28.4995 56.0001C29.8283 56.0001 31.0722 55.4096 31.9122 54.3799L54.8625 26.2473C56.2968 24.4891 56.1685 21.9535 54.564 20.3491ZM43.3833 12.6302L40.0793 21.9916L30.48 12.3922H41.6578C42.2496 12.3922 42.8286 12.4744 43.3833 12.6302ZM38.1665 22.3989H18.8325L28.4995 12.7319L38.1665 22.3989ZM26.5192 12.3922L16.9198 21.9916L13.6158 12.6302C14.1704 12.4744 14.7495 12.3922 15.3413 12.3922H26.5192ZM10.8531 14.2512C11.2335 13.8708 11.6538 13.5452 12.1043 13.2772L15.3238 22.3989H2.99844C3.13407 22.0754 3.33214 21.7722 3.59508 21.5093L10.8531 14.2512ZM28.3423 54.355L18.5939 26.7348C18.4432 26.3075 17.9745 26.0835 17.5474 26.2343C17.1202 26.3851 16.8961 26.8537 17.0469 27.2808L26.1591 53.0987L3.40783 25.2102C3.12061 24.8581 2.93435 24.4562 2.8451 24.0395H39.3564L28.6568 54.355C28.6047 54.358 28.5523 54.3595 28.4995 54.3595C28.4469 54.3595 28.3944 54.358 28.3423 54.355ZM30.8401 53.0987L44.8947 13.2772C45.3453 13.5452 45.7657 13.8708 46.146 14.2512L53.404 21.5093C53.6669 21.7721 53.865 22.0754 54.0006 22.3989H44.6268C44.1737 22.3989 43.8065 22.7662 43.8065 23.2192C43.8065 23.6723 44.1737 24.0395 44.6268 24.0395H54.1541C54.0648 24.4562 53.8786 24.8581 53.5914 25.2102L30.8401 53.0987Z" fill="#EBEBEB"/>
<path d="M28.5 7.9123C28.953 7.9123 29.3203 7.54513 29.3203 7.09198V0.820312C29.3203 0.367281 28.953 0 28.5 0C28.047 0 27.6797 0.367281 27.6797 0.820312V7.09198C27.6797 7.54502 28.047 7.9123 28.5 7.9123Z" fill="#EBEBEB"/>
<path d="M19.7029 7.45874C19.8466 7.74618 20.1363 7.91232 20.4373 7.91232C20.5605 7.91232 20.6857 7.88443 20.8035 7.82558C21.2087 7.62291 21.373 7.13029 21.1703 6.72505L19.3784 3.14116C19.1757 2.73593 18.6832 2.57164 18.2779 2.77432C17.8726 2.97699 17.7084 3.46961 17.911 3.87485L19.7029 7.45874Z" fill="#EBEBEB"/>
<path d="M36.1958 7.82549C36.3136 7.88444 36.4387 7.91222 36.562 7.91222C36.8629 7.91222 37.1526 7.74597 37.2963 7.45864L39.0882 3.87475C39.2909 3.46952 39.1266 2.97678 38.7214 2.77422C38.3164 2.57177 37.8235 2.73583 37.6209 3.14106L35.829 6.72496C35.6264 7.13019 35.7906 7.62292 36.1958 7.82549Z" fill="#EBEBEB"/>
</g>
<defs>
<clipPath id="clip0_2738_3391">
<rect width="56" height="56" fill="white" transform="translate(0.5)"/>
</clipPath>
</defs>
</svg>
