<svg width="57" height="56" viewBox="0 0 57 56" fill="none" xmlns="http://www.w3.org/2000/svg">
<g clip-path="url(#clip0_2738_3245)">
<path d="M52.5798 25.3054L51.1296 19.5047C51.5261 19.4205 51.8236 19.0687 51.8236 18.6473V17.712C51.8236 15.6814 50.1715 14.0294 48.1409 14.0294H41.5355V12.1002C41.5355 11.101 40.7227 10.2881 39.7234 10.2881H6.05319C5.05394 10.2881 4.24106 11.101 4.24106 12.1002V28.0001C4.24106 28.4843 4.63361 28.8769 5.11792 28.8769C5.60213 28.8769 5.99478 28.4844 5.99478 28.0001V12.1002C5.99478 12.0679 6.02092 12.0418 6.05319 12.0418H39.7233C39.7556 12.0418 39.7817 12.0679 39.7817 12.1002V28.0003C39.7817 28.4845 40.1743 28.8771 40.6586 28.8771C41.1428 28.8771 41.5354 28.4846 41.5354 28.0003V27.0063H51.8789C51.8798 27.0063 51.8804 27.0065 51.8812 27.0065C51.8821 27.0065 51.8828 27.0064 51.8836 27.0064C53.1564 27.0073 54.2371 27.8427 54.6084 28.9938H51.8819C51.3977 28.9938 51.005 29.3864 51.005 29.8707V31.7412C51.005 33.2562 52.2374 34.4886 53.7524 34.4886H54.7462V38.3466H52.4535C51.7003 36.1719 49.633 34.6054 47.2054 34.6054C44.7778 34.6054 42.7104 36.1719 41.9574 38.3466H41.5352V31.7411C41.5352 31.2569 41.1427 30.8643 40.6583 30.8643C40.1741 30.8643 39.7815 31.2568 39.7815 31.7411V38.3464H21.5894C20.8362 36.1717 18.7689 34.6052 16.3413 34.6052C13.9138 34.6052 11.8463 36.1717 11.0933 38.3464H6.05319C6.02092 38.3464 5.99478 38.3202 5.99478 38.288V36.3589H9.79436C10.2786 36.3589 10.6712 35.9664 10.6712 35.4821C10.6712 34.9978 10.2787 34.6052 9.79436 34.6052H1.37686C0.892656 34.6052 0.5 34.9978 0.5 35.4821C0.5 35.9664 0.892547 36.3589 1.37686 36.3589H4.24117V38.288C4.24117 39.2872 5.05405 40.1001 6.0533 40.1001H10.7897C10.7895 40.1196 10.7881 40.1389 10.7881 40.1585C10.7881 43.2206 13.2794 45.7117 16.3413 45.7117C19.4033 45.7117 21.8945 43.2206 21.8945 40.1585C21.8945 40.1388 21.8932 40.1196 21.893 40.1001H41.6538C41.6535 40.1196 41.6522 40.1389 41.6522 40.1585C41.6522 43.2206 44.1435 45.7117 47.2054 45.7117C50.2674 45.7117 52.7586 43.2206 52.7586 40.1585C52.7586 40.1388 52.7573 40.1196 52.7571 40.1001H55.623C56.1072 40.1001 56.4999 39.7076 56.4999 39.2232V29.8705C56.5 27.5614 54.7963 25.6428 52.5798 25.3054ZM41.5355 15.783H48.1409C49.2046 15.783 50.07 16.6484 50.07 17.712V17.7704H41.5355V15.783ZM41.5355 25.2527V19.524H49.3269L50.759 25.2527H41.5355ZM16.3413 43.9583C14.2463 43.9583 12.5417 42.2539 12.5417 40.1587C12.5417 38.0635 14.2463 36.3591 16.3413 36.3591C18.4364 36.3591 20.1409 38.0635 20.1409 40.1587C20.1409 42.2539 18.4364 43.9583 16.3413 43.9583ZM47.2056 43.9583C45.1106 43.9583 43.4061 42.2539 43.4061 40.1587C43.4061 38.0635 45.1106 36.3591 47.2056 36.3591C49.3007 36.3591 51.0052 38.0635 51.0052 40.1587C51.0052 42.2539 49.3007 43.9583 47.2056 43.9583ZM54.7464 32.7349H53.7526C53.2046 32.7349 52.7588 32.2891 52.7588 31.7411V30.7473H54.7463V32.7349H54.7464Z" fill="#EBEBEB"/>
<path d="M16.3395 38.3467C15.3402 38.3467 14.5273 39.1596 14.5273 40.1588C14.5273 41.1581 15.3402 41.9709 16.3395 41.9709C17.3387 41.9709 18.1516 41.1581 18.1516 40.1588C18.1516 39.1596 17.3387 38.3467 16.3395 38.3467Z" fill="#EBEBEB"/>
<path d="M47.2067 38.3467C46.2074 38.3467 45.3945 39.1596 45.3945 40.1588C45.3945 41.1581 46.2074 41.9709 47.2067 41.9709C48.2059 41.9709 49.0188 41.1581 49.0188 40.1588C49.0188 39.1596 48.2059 38.3467 47.2067 38.3467Z" fill="#EBEBEB"/>
<path d="M36.9161 34.6055H23.8222C23.338 34.6055 22.9453 34.998 22.9453 35.4823C22.9453 35.9666 23.3379 36.3592 23.8222 36.3592H36.9161C37.4003 36.3592 37.793 35.9666 37.793 35.4823C37.793 34.998 37.4004 34.6055 36.9161 34.6055Z" fill="#EBEBEB"/>
<path d="M14.4714 30.8643H3.24795C2.76375 30.8643 2.37109 31.2568 2.37109 31.7411C2.37109 32.2254 2.76364 32.618 3.24795 32.618H14.4714C14.9556 32.618 15.3482 32.2254 15.3482 31.7411C15.3482 31.2568 14.9556 30.8643 14.4714 30.8643Z" fill="#EBEBEB"/>
<path d="M30.9892 18.9623C30.6469 18.62 30.0916 18.62 29.7492 18.9624L21.9517 26.7599L17.8953 22.7035C17.5528 22.361 16.9976 22.361 16.6553 22.7035C16.3128 23.0459 16.3128 23.601 16.6553 23.9435L21.3317 28.6199C21.5029 28.7912 21.7273 28.8767 21.9517 28.8767C22.176 28.8767 22.4005 28.7912 22.5716 28.6199L30.9891 20.2024C31.3316 19.8598 31.3316 19.3048 30.9892 18.9623Z" fill="#EBEBEB"/>
</g>
<defs>
<clipPath id="clip0_2738_3245">
<rect width="56" height="56" fill="white" transform="translate(0.5)"/>
</clipPath>
</defs>
</svg>
