<svg width="57" height="56" viewBox="0 0 57 56" fill="none" xmlns="http://www.w3.org/2000/svg">
<path d="M5.16877 28.0001C5.16814 23.6184 6.4015 19.325 8.72762 15.6117C11.0537 11.8984 14.3786 8.91523 18.3214 7.00381C22.2643 5.09238 26.6657 4.32998 31.0217 4.8039C35.3777 5.27781 39.5123 6.96889 42.9518 9.68349H39.4025C39.095 9.68647 38.8012 9.81069 38.5848 10.0292C38.3684 10.2476 38.2471 10.5427 38.2471 10.8501C38.2471 11.1576 38.3684 11.4527 38.5848 11.6711C38.8012 11.8896 39.095 12.0138 39.4025 12.0168H46.0021C46.3115 12.0168 46.6082 11.8939 46.827 11.6751C47.0458 11.4563 47.1688 11.1595 47.1688 10.8501V4.25028C47.1702 4.09613 47.1412 3.9432 47.0832 3.80035C47.0253 3.65749 46.9396 3.52754 46.8311 3.41801C46.7226 3.30847 46.5935 3.22152 46.4512 3.16218C46.3089 3.10284 46.1563 3.07228 46.0021 3.07228C45.8479 3.07228 45.6953 3.10284 45.553 3.16218C45.4107 3.22152 45.2816 3.30847 45.1731 3.41801C45.0647 3.52754 44.979 3.65749 44.921 3.80035C44.863 3.9432 44.834 4.09613 44.8355 4.25028V8.20091C39.7483 4.00433 33.2409 1.92692 26.6631 2.39954C20.0853 2.87216 13.9418 5.85854 9.50682 10.7393C5.07183 15.62 2.68568 22.0206 2.84328 28.6135C3.00087 35.2064 5.69012 41.4856 10.3532 46.1489C10.4611 46.2593 10.5898 46.3472 10.7319 46.4075C10.8739 46.4677 11.0266 46.4992 11.1809 46.5001C11.3352 46.501 11.4882 46.4713 11.6309 46.4126C11.7737 46.354 11.9034 46.2676 12.0125 46.1585C12.1216 46.0493 12.208 45.9196 12.2667 45.7769C12.3253 45.6341 12.3551 45.4812 12.3542 45.3268C12.3533 45.1725 12.3218 45.0199 12.2615 44.8778C12.2012 44.7358 12.1133 44.6071 12.003 44.4992C9.82947 42.3375 8.10632 39.7663 6.93323 36.9342C5.76014 34.1021 5.16042 31.0655 5.16877 28.0001Z" fill="#EBEBEB"/>
<path d="M18.3073 48.9947C17.6454 48.6729 16.9902 48.3145 16.3604 47.9306C16.0963 47.7694 15.779 47.7197 15.4783 47.7925C15.1775 47.8652 14.918 48.0544 14.7568 48.3185C14.5956 48.5826 14.5459 48.8999 14.6186 49.2007C14.6914 49.5014 14.8806 49.7609 15.1447 49.9221C15.838 50.3454 16.5592 50.739 17.2878 51.0933C17.4256 51.1603 17.5752 51.1994 17.7282 51.2085C17.8811 51.2177 18.0343 51.1966 18.1791 51.1465C18.3239 51.0964 18.4574 51.0183 18.572 50.9166C18.6866 50.8149 18.78 50.6917 18.847 50.5539C18.9139 50.4161 18.9531 50.2664 18.9622 50.1135C18.9713 49.9606 18.9502 49.8074 18.9001 49.6626C18.8501 49.5178 18.7719 49.3843 18.6702 49.2697C18.5686 49.1551 18.4453 49.0617 18.3075 48.9947H18.3073Z" fill="#EBEBEB"/>
<path d="M49.505 17.8249C49.5718 17.9628 49.6651 18.0862 49.7795 18.188C49.894 18.2898 50.0274 18.3681 50.1722 18.4184C50.3169 18.4687 50.4701 18.4899 50.6231 18.481C50.776 18.4721 50.9257 18.4331 51.0636 18.3663C51.2015 18.2995 51.3249 18.2062 51.4267 18.0917C51.5285 17.9773 51.6068 17.8439 51.6571 17.6991C51.7074 17.5544 51.7286 17.4012 51.7197 17.2482C51.7108 17.0953 51.6718 16.9456 51.605 16.8077C51.2535 16.0813 50.8605 15.3602 50.4372 14.664C50.3576 14.533 50.2529 14.4191 50.1292 14.3286C50.0056 14.2381 49.8653 14.1729 49.7164 14.1367C49.4157 14.0634 49.0983 14.1126 48.8339 14.2735C48.5695 14.4343 48.3798 14.6936 48.3066 14.9943C48.2334 15.295 48.2826 15.6124 48.4434 15.8768C48.8282 16.5098 49.1854 17.1652 49.505 17.8249Z" fill="#EBEBEB"/>
<path d="M31.271 51.1699C30.5344 51.2574 29.7893 51.3095 29.0556 51.3272C28.7518 51.3389 28.4645 51.4686 28.255 51.6889C28.0454 51.9092 27.9301 52.2025 27.9337 52.5065C27.9372 52.8105 28.0593 53.1011 28.2739 53.3165C28.4885 53.5318 28.7787 53.6549 29.0827 53.6594C29.0918 53.6594 29.1015 53.6594 29.1106 53.6589C29.9172 53.64 30.7358 53.5823 31.5447 53.4868C31.8518 53.4502 32.1317 53.2933 32.3231 53.0504C32.5145 52.8076 32.6016 52.4987 32.5654 52.1916C32.5291 51.8845 32.3725 51.6044 32.1299 51.4128C31.8872 51.2211 31.5784 51.1336 31.2713 51.1695L31.271 51.1699Z" fill="#EBEBEB"/>
<path d="M24.6292 51.0118C23.9035 50.8905 23.1737 50.7327 22.4605 50.5415C22.1615 50.4616 21.843 50.5037 21.575 50.6587C21.3071 50.8136 21.1117 51.0686 21.0318 51.3676C20.9518 51.6666 20.994 51.9851 21.1489 52.253C21.3038 52.521 21.5588 52.7164 21.8578 52.7963C22.6428 53.006 23.4461 53.1796 24.2453 53.313C24.3964 53.3382 24.551 53.3334 24.7002 53.2988C24.8495 53.2643 24.9905 53.2007 25.1152 53.1117C25.2399 53.0226 25.3458 52.9099 25.4269 52.78C25.508 52.65 25.5627 52.5053 25.588 52.3542C25.6132 52.2031 25.6084 52.0485 25.5738 51.8992C25.5393 51.75 25.4757 51.609 25.3866 51.4843C25.2976 51.3596 25.1849 51.2537 25.0549 51.1726C24.925 51.0914 24.7803 51.0367 24.6292 51.0115V51.0118Z" fill="#EBEBEB"/>
<path d="M53.0236 27.4374C52.7143 27.4298 52.4147 27.5454 52.1906 27.7587C51.9665 27.972 51.8362 28.2656 51.8285 28.5749C51.8096 29.3126 51.7562 30.0577 51.6683 30.7902C51.6318 31.0975 51.7187 31.4067 51.91 31.6499C52.1013 31.8932 52.3814 32.0505 52.6886 32.0873C52.7351 32.0925 52.7819 32.0952 52.8287 32.0953C53.1139 32.0949 53.389 31.9901 53.6022 31.8006C53.8153 31.6112 53.9517 31.3503 53.9857 31.0672C54.0814 30.2623 54.1407 29.4436 54.1607 28.633C54.1646 28.4799 54.1383 28.3274 54.0832 28.1844C54.0282 28.0414 53.9455 27.9106 53.8399 27.7996C53.7343 27.6886 53.6079 27.5994 53.4678 27.5373C53.3277 27.4751 53.1768 27.4412 53.0236 27.4374Z" fill="#EBEBEB"/>
<path d="M49.443 40.7822C49.1869 40.6087 48.8725 40.5438 48.5687 40.6018C48.2648 40.6598 47.9964 40.8359 47.8223 41.0915C47.4075 41.7016 46.9592 42.2993 46.4887 42.8671C46.3886 42.9848 46.3129 43.1212 46.266 43.2683C46.2191 43.4155 46.2019 43.5705 46.2154 43.7244C46.2289 43.8782 46.2728 44.0279 46.3445 44.1646C46.4163 44.3014 46.5145 44.4225 46.6335 44.521C46.7525 44.6195 46.8898 44.6934 47.0376 44.7384C47.1853 44.7834 47.3405 44.7986 47.4942 44.7831C47.6479 44.7676 47.7969 44.7218 47.9328 44.6482C48.0686 44.5747 48.1884 44.4749 48.2854 44.3546C48.8026 43.7303 49.2965 43.0734 49.7522 42.4024C49.8383 42.2757 49.8986 42.1333 49.9296 41.9833C49.9607 41.8334 49.9619 41.6787 49.9331 41.5283C49.9044 41.3778 49.8464 41.2345 49.7623 41.1065C49.6782 40.9785 49.5697 40.8683 49.443 40.7822Z" fill="#EBEBEB"/>
<path d="M51.0508 21.9811C51.2399 22.6915 51.3972 23.4212 51.5185 24.1503C51.5637 24.4227 51.704 24.6702 51.9145 24.8488C52.1249 25.0275 52.3919 25.1258 52.668 25.1261C52.7323 25.126 52.7965 25.1207 52.86 25.1102C53.0111 25.0851 53.1559 25.0305 53.2859 24.9495C53.416 24.8685 53.5288 24.7626 53.618 24.638C53.7071 24.5133 53.7708 24.3724 53.8054 24.2231C53.8401 24.0738 53.845 23.9192 53.8198 23.768C53.6871 22.966 53.5136 22.1624 53.3058 21.3806C53.2262 21.0816 53.031 20.8265 52.7633 20.6714C52.4955 20.5162 52.1772 20.4738 51.8782 20.5535C51.5792 20.6331 51.324 20.8282 51.1689 21.096C51.0138 21.3637 50.9714 21.6821 51.051 21.9811H51.0508Z" fill="#EBEBEB"/>
<path d="M43.35 46.0018C42.7798 46.4736 42.1823 46.9218 41.5745 47.3337C41.4477 47.4196 41.339 47.5297 41.2548 47.6577C41.1705 47.7856 41.1123 47.9289 41.0834 48.0793C41.0545 48.2298 41.0556 48.3844 41.0865 48.5345C41.1174 48.6845 41.1775 48.827 41.2635 48.9538C41.3494 49.0806 41.4595 49.1892 41.5874 49.2735C41.7154 49.3577 41.8587 49.416 42.0091 49.4448C42.1595 49.4737 42.3142 49.4727 42.4642 49.4418C42.6143 49.4109 42.7568 49.3508 42.8836 49.2648C43.5524 48.8119 44.2092 48.3192 44.8369 47.8008C45.0755 47.6037 45.2259 47.3198 45.2552 47.0117C45.2845 46.7036 45.1901 46.3965 44.993 46.1579C44.7958 45.9193 44.5119 45.7689 44.2038 45.7396C43.8957 45.7103 43.5886 45.8047 43.35 46.0018Z" fill="#EBEBEB"/>
<path d="M52.1915 34.3673C51.8968 34.2737 51.5769 34.3008 51.3022 34.4427C51.0274 34.5847 50.8202 34.8298 50.7259 35.1244C50.5026 35.8244 50.2417 36.5235 49.9506 37.203C49.8869 37.3443 49.8521 37.4969 49.848 37.6518C49.844 37.8067 49.8709 37.9608 49.9271 38.1052C49.9833 38.2496 50.0677 38.3814 50.1754 38.4928C50.2831 38.6042 50.412 38.693 50.5544 38.7541C50.6968 38.8152 50.8499 38.8473 51.0049 38.8485C51.1598 38.8497 51.3135 38.8201 51.4568 38.7613C51.6002 38.7025 51.7304 38.6157 51.8399 38.506C51.9493 38.3963 52.0358 38.2659 52.0943 38.1224C52.4157 37.3744 52.7028 36.6038 52.9482 35.833C52.9948 35.6871 53.0123 35.5334 52.9995 35.3808C52.9867 35.2281 52.9439 35.0795 52.8736 34.9433C52.8034 34.8072 52.707 34.6863 52.5899 34.5874C52.4729 34.4886 52.3375 34.4138 52.1915 34.3673Z" fill="#EBEBEB"/>
<path d="M37.6805 49.4575C37.0077 49.7457 36.3082 50.0061 35.6013 50.2317C35.4553 50.2782 35.32 50.353 35.2029 50.4518C35.0859 50.5507 34.9895 50.6716 34.9192 50.8077C34.8489 50.9438 34.806 51.0924 34.7932 51.2451C34.7803 51.3977 34.7976 51.5514 34.8442 51.6974C34.8907 51.8433 34.9655 51.9787 35.0644 52.0957C35.1632 52.2128 35.2841 52.3092 35.4202 52.3795C35.5563 52.4498 35.705 52.4926 35.8576 52.5055C36.0103 52.5183 36.164 52.501 36.3099 52.4545C37.0875 52.2066 37.8577 51.9202 38.5988 51.6029C38.8833 51.481 39.1077 51.2512 39.2228 50.9639C39.3378 50.6766 39.334 50.3553 39.2121 50.0708C39.0903 49.7863 38.8604 49.5619 38.5731 49.4469C38.2858 49.3318 37.9645 49.3357 37.6801 49.4575H37.6805Z" fill="#EBEBEB"/>
<path d="M18.6361 25.6164C18.6361 23.7043 17.3789 22.1722 15.433 21.7128C14.364 21.4596 13.2407 21.5763 12.2466 22.0437C11.2524 22.5111 10.446 23.3018 9.95909 24.2865C9.82274 24.5631 9.80139 24.8823 9.89971 25.1746C9.99802 25.4668 10.208 25.7082 10.4838 25.8461C10.7596 25.984 11.0787 26.0072 11.3715 25.9105C11.6643 25.8138 11.9069 25.6052 12.0463 25.3302C12.2954 24.8132 12.7144 24.3975 13.2332 24.1524C13.7521 23.9073 14.3394 23.8478 14.8968 23.9838C15.2267 24.0615 16.3027 24.4096 16.3027 25.6164C16.3027 26.8332 14.8974 27.7718 13.4094 28.7655C11.734 29.8838 9.83594 31.1512 9.83594 33.2499C9.83594 33.5593 9.95886 33.8561 10.1777 34.0749C10.3965 34.2937 10.6932 34.4166 11.0026 34.4166H17.4694C17.6236 34.4181 17.7765 34.389 17.9194 34.3311C18.0622 34.2731 18.1922 34.1874 18.3017 34.0789C18.4113 33.9705 18.4982 33.8413 18.5575 33.6991C18.6169 33.5568 18.6474 33.4041 18.6474 33.25C18.6474 33.0958 18.6169 32.9432 18.5575 32.8009C18.4982 32.6586 18.4113 32.5295 18.3017 32.421C18.1922 32.3125 18.0622 32.2268 17.9194 32.1689C17.7765 32.1109 17.6236 32.0818 17.4694 32.0833H12.8472C13.336 31.6202 14.027 31.1588 14.7049 30.7059C16.548 29.4754 18.6361 28.0809 18.6361 25.6164Z" fill="#EBEBEB"/>
<path d="M29.6703 29.4584C29.6703 29.149 29.5473 28.8523 29.3285 28.6335C29.1097 28.4147 28.813 28.2918 28.5036 28.2918H27.5556V22.0939C27.5556 21.8522 27.4806 21.6166 27.3408 21.4194C27.2011 21.2223 27.0037 21.0734 26.7757 20.9933C26.5478 20.9131 26.3006 20.9058 26.0682 20.9722C25.8359 21.0385 25.6299 21.1754 25.4787 21.3639L19.5725 28.7288C19.4351 28.9003 19.3489 29.1072 19.324 29.3256C19.299 29.544 19.3362 29.765 19.4313 29.9632C19.5265 30.1613 19.6756 30.3286 19.8617 30.4457C20.0477 30.5628 20.263 30.625 20.4828 30.6251H25.2224V33.9064C25.2209 34.0605 25.2499 34.2134 25.3079 34.3563C25.3659 34.4991 25.4516 34.6291 25.56 34.7386C25.6685 34.8482 25.7976 34.9351 25.9399 34.9945C26.0822 35.0538 26.2348 35.0844 26.389 35.0844C26.5432 35.0844 26.6958 35.0538 26.8381 34.9945C26.9804 34.9351 27.1095 34.8482 27.218 34.7386C27.3264 34.6291 27.4121 34.4991 27.4701 34.3563C27.5281 34.2134 27.5571 34.0605 27.5556 33.9064V30.6251H28.5036C28.813 30.6251 29.1098 30.5022 29.3286 30.2834C29.5474 30.0646 29.6703 29.7678 29.6703 29.4584ZM25.2224 28.2918H22.9145L25.2224 25.4133V28.2918Z" fill="#EBEBEB"/>
<path d="M35.6378 20.2936C35.4875 20.2632 35.3327 20.2628 35.1823 20.2924C35.0319 20.322 34.8888 20.381 34.7613 20.466C34.6337 20.5511 34.5242 20.6604 34.439 20.7879C34.3538 20.9153 34.2947 21.0583 34.2649 21.2087L31.6399 34.3337C31.5792 34.6371 31.6414 34.9522 31.813 35.2096C31.9846 35.4671 32.2514 35.6459 32.5548 35.7066C32.6304 35.7217 32.7074 35.7293 32.7845 35.7293C33.054 35.7291 33.315 35.6355 33.5233 35.4646C33.7316 35.2937 33.8743 35.0559 33.9272 34.7917L36.5522 21.6667C36.5824 21.5165 36.5827 21.3618 36.553 21.2115C36.5234 21.0612 36.4644 20.9182 36.3795 20.7906C36.2946 20.6631 36.1854 20.5536 36.0581 20.4683C35.9308 20.383 35.788 20.3236 35.6378 20.2936Z" fill="#EBEBEB"/>
<path d="M41.6275 34.4175C41.8579 34.4173 42.0831 34.349 42.2748 34.2212C42.4665 34.0934 42.6161 33.9117 42.7048 33.6991L47.0798 23.1991C47.1538 23.0218 47.1828 22.829 47.1643 22.6378C47.1459 22.4466 47.0805 22.2629 46.9739 22.103C46.8674 21.9432 46.7231 21.8121 46.5537 21.7215C46.3843 21.6308 46.1952 21.5834 46.0031 21.5835H40.0968C39.7894 21.5865 39.4955 21.7107 39.2791 21.9292C39.0628 22.1476 38.9414 22.4427 38.9414 22.7501C38.9414 23.0576 39.0628 23.3527 39.2791 23.5711C39.4955 23.7896 39.7894 23.9138 40.0968 23.9168H44.2531L40.5514 32.8018C40.4778 32.979 40.449 33.1717 40.4675 33.3628C40.4861 33.5539 40.5515 33.7374 40.6579 33.8972C40.7643 34.057 40.9084 34.1881 41.0775 34.2789C41.2467 34.3697 41.4356 34.4175 41.6275 34.4179V34.4175Z" fill="#EBEBEB"/>
</svg>
