<svg width="57" height="56" viewBox="0 0 57 56" fill="none" xmlns="http://www.w3.org/2000/svg">
<path d="M50.3969 50.4561L44.072 33.8263C44.6969 33.4527 45.2401 32.9569 45.6691 32.3686C46.1299 31.7352 46.4453 31.008 46.5929 30.2388C46.7404 29.4696 46.7165 28.6772 46.5227 27.9183C46.3589 27.2547 46.3865 26.5583 46.6021 25.9097C46.8178 25.2611 47.2127 24.6869 47.7412 24.2535C48.353 23.752 48.8457 23.1209 49.1837 22.4057C49.5216 21.6905 49.6965 20.9091 49.6955 20.1181C49.6945 19.327 49.5177 18.5461 49.178 17.8317C48.8382 17.1174 48.3439 16.4875 47.7309 15.9875C47.2043 15.5524 46.8117 14.9771 46.5984 14.3282C46.3851 13.6792 46.3598 12.9832 46.5256 12.3205C46.7178 11.5629 46.7407 10.7722 46.5927 10.0048C46.4448 9.2373 46.1295 8.51186 45.6694 7.88003C45.1976 7.23101 44.5885 6.69401 43.8855 6.30727C43.1825 5.92054 42.4028 5.69358 41.6021 5.64257C40.9132 5.59621 40.2508 5.3591 39.6889 4.95778C39.1271 4.55645 38.688 4.00673 38.4207 3.37011C38.1215 2.64132 37.6669 1.98659 37.0886 1.45159C36.5103 0.916589 35.8223 0.514208 35.0725 0.272518C34.3119 0.023838 33.5063 -0.0559832 32.7117 0.0386182C31.9171 0.13322 31.1528 0.399967 30.4719 0.820268C29.8782 1.183 29.1959 1.37493 28.5002 1.37493C27.8044 1.37493 27.1221 1.183 26.5284 0.820268C25.8475 0.399951 25.0832 0.133193 24.2886 0.0385915C23.494 -0.0560103 22.6884 0.0238202 21.9279 0.272518C21.1783 0.514406 20.4905 0.916862 19.9124 1.45183C19.3344 1.9868 18.8799 2.64141 18.5808 3.37002C18.3127 4.00783 17.8723 4.55837 17.3089 4.95989C16.7455 5.36141 16.0814 5.59805 15.391 5.64327C14.5916 5.69508 13.8135 5.92244 13.1119 6.30916C12.4104 6.69588 11.8027 7.23247 11.3321 7.88073C10.8713 8.51408 10.5559 9.24129 10.4083 10.0105C10.2608 10.7798 10.2847 11.5721 10.4785 12.331C10.6422 12.9946 10.6147 13.691 10.399 14.3396C10.1834 14.9882 9.78846 15.5625 9.25995 15.9959C8.64817 16.4974 8.15548 17.1285 7.81751 17.8437C7.47953 18.5589 7.30472 19.3403 7.30571 20.1313C7.30669 20.9223 7.48346 21.7033 7.82322 22.4176C8.16298 23.1319 8.65725 23.7619 9.27027 24.2618C9.79681 24.6969 10.1894 25.2721 10.4027 25.921C10.616 26.5699 10.6413 27.2659 10.4756 27.9286C10.2834 28.6862 10.2605 29.4768 10.4084 30.2443C10.5564 31.0117 10.8717 31.7372 11.3318 32.369C11.7609 32.957 12.3041 33.4525 12.929 33.8258L6.60423 50.4561C6.54463 50.6124 6.53114 50.7826 6.56535 50.9464C6.59957 51.1102 6.68006 51.2607 6.79728 51.3801C6.91449 51.4995 7.0635 51.5828 7.22663 51.6201C7.38976 51.6573 7.56015 51.647 7.71758 51.5903L14.6065 49.1141L18.1074 55.5428C18.1826 55.681 18.2936 55.7963 18.4288 55.8767C18.5639 55.9571 18.7183 55.9995 18.8756 55.9995C18.8953 55.9995 18.9149 55.9987 18.9346 55.9974C19.1015 55.9862 19.2618 55.9272 19.3962 55.8276C19.5307 55.7281 19.6339 55.592 19.6934 55.4356L25.6149 39.8746C25.9328 39.7544 26.2389 39.605 26.5293 39.4283C27.1229 39.0658 27.805 38.874 28.5006 38.874C29.1962 38.874 29.8783 39.0658 30.4719 39.4283L30.4728 39.4288C30.7624 39.6031 31.0674 39.7503 31.3841 39.8686L37.3078 55.4348C37.3673 55.5912 37.4704 55.7273 37.6049 55.8269C37.7394 55.9264 37.8997 55.9854 38.0666 55.9966C38.0863 55.9979 38.1059 55.9987 38.1256 55.9987C38.2829 55.9987 38.4372 55.9563 38.5724 55.8759C38.7076 55.7955 38.8186 55.6802 38.8938 55.542L42.3946 49.1133L49.2836 51.5895C49.441 51.6462 49.6114 51.6565 49.7746 51.6193C49.9377 51.582 50.0867 51.4987 50.2039 51.3793C50.3211 51.2599 50.4016 51.1094 50.4358 50.9456C50.47 50.7818 50.4566 50.6116 50.3969 50.4553V50.4561ZM18.7346 53.0353L15.7849 47.619C15.685 47.4358 15.5229 47.2943 15.3278 47.22C15.1328 47.1457 14.9176 47.1436 14.7211 47.214L8.91563 49.3004L14.5542 34.4759C14.8322 34.541 15.1148 34.5846 15.3995 34.6065C16.0884 34.6528 16.7508 34.8899 17.3126 35.2913C17.8744 35.6926 18.3135 36.2423 18.5808 36.8789C18.88 37.6077 19.3345 38.2624 19.9128 38.7974C20.491 39.3323 21.179 39.7347 21.9287 39.9764C22.4695 40.1511 23.0339 40.2413 23.6021 40.244L18.7346 53.0353ZM25.609 37.9395C25.1445 38.2264 24.623 38.4084 24.0809 38.4728C23.5388 38.5372 22.9892 38.4825 22.4704 38.3125C21.9625 38.1491 21.4963 37.877 21.1043 37.515C20.7123 37.1529 20.404 36.7098 20.2009 36.2164C19.8078 35.2765 19.1607 34.4646 18.3321 33.8717C17.5035 33.2789 16.5262 32.9286 15.5097 32.86C14.9662 32.8251 14.4371 32.671 13.9599 32.4084C13.4827 32.1459 13.0692 31.7815 12.7488 31.3411C12.4389 30.9152 12.2269 30.4262 12.1278 29.9089C12.0287 29.3916 12.045 28.8588 12.1755 28.3486C12.4195 27.3636 12.3798 26.3297 12.0611 25.3663C11.7423 24.4029 11.1575 23.5493 10.3743 22.9042C9.96132 22.5669 9.62872 22.1419 9.40064 21.6599C9.17256 21.178 9.05473 20.6513 9.05571 20.1181C9.05669 19.5849 9.17646 19.0586 9.40631 18.5775C9.63616 18.0964 9.97032 17.6726 10.3845 17.3368C11.1659 16.6901 11.7484 15.8356 12.0649 14.872C12.3814 13.9083 12.4189 12.8748 12.1731 11.8908C12.044 11.3818 12.0287 10.8506 12.1283 10.335C12.2278 9.81947 12.4397 9.33217 12.749 8.90781C13.0706 8.46642 13.4857 8.10141 13.9645 7.83879C14.4434 7.57617 14.9743 7.42241 15.5193 7.38846C16.5343 7.31856 17.5097 6.96763 18.3365 6.37494C19.1633 5.78225 19.8089 4.97118 20.201 4.03248C20.404 3.53903 20.7122 3.09583 21.1042 2.73387C21.4963 2.37191 21.9626 2.0999 22.4706 1.93686C22.9895 1.767 23.5393 1.71237 24.0815 1.77678C24.6237 1.84119 25.1453 2.02308 25.61 2.30978C26.4807 2.84145 27.4811 3.12274 28.5012 3.12274C29.5213 3.12274 30.5217 2.84145 31.3924 2.30978C31.8569 2.02316 32.3784 1.8413 32.9205 1.77689C33.4625 1.71249 34.0121 1.76707 34.5309 1.93686C35.0389 2.10018 35.5051 2.37234 35.8971 2.73435C36.2891 3.09637 36.5974 3.53952 36.8005 4.03292C37.1936 4.97286 37.8407 5.78475 38.6692 6.37758C39.4978 6.97041 40.4751 7.32075 41.4916 7.38933C42.0351 7.42421 42.5643 7.57839 43.0415 7.84091C43.5186 8.10343 43.9321 8.46784 44.2525 8.90825C44.5624 9.3341 44.7745 9.82313 44.8736 10.3404C44.9727 10.8577 44.9564 11.3905 44.8258 11.9007C44.5819 12.8857 44.6216 13.9196 44.9403 14.883C45.259 15.8464 45.8438 16.7 46.6271 17.3451C47.04 17.6824 47.3726 18.1075 47.6007 18.5894C47.8288 19.0713 47.9466 19.5981 47.9456 20.1312C47.9447 20.6644 47.8249 21.1907 47.595 21.6718C47.3652 22.1529 47.031 22.5768 46.6169 22.9125C45.8355 23.5592 45.2529 24.4136 44.9364 25.3772C44.6199 26.3408 44.5824 27.3743 44.8281 28.3583C44.9572 28.8673 44.9725 29.3984 44.8729 29.914C44.7734 30.4296 44.5614 30.9169 44.2522 31.3412C43.9306 31.7826 43.5155 32.1477 43.0367 32.4103C42.5578 32.6729 42.0269 32.8267 41.4818 32.8606C40.4669 32.9305 39.4915 33.2814 38.6647 33.8741C37.8379 34.4668 37.1923 35.2779 36.8001 36.2166C36.5972 36.71 36.2889 37.1532 35.8969 37.5152C35.5049 37.8771 35.0386 38.1491 34.5306 38.3122C34.0117 38.4826 33.4619 38.5375 32.9196 38.473C32.3773 38.4086 31.8557 38.2264 31.3912 37.9393C30.5205 37.4077 29.5201 37.1264 28.5 37.1265C27.4799 37.1265 26.4796 37.4079 25.609 37.9395ZM42.2801 47.2137C42.0836 47.1432 41.8684 47.1453 41.6733 47.2195C41.4782 47.2938 41.3161 47.4354 41.2163 47.6187L38.2666 53.0349L33.3998 40.246C33.9679 40.2427 34.532 40.152 35.0725 39.977C35.8223 39.7351 36.5104 39.3326 37.0888 38.7976C37.6672 38.2625 38.1219 37.6078 38.4213 36.8789C38.689 36.2411 39.1292 35.6904 39.6925 35.2889C40.2558 34.8874 40.9199 34.6508 41.6102 34.6058C41.8921 34.5841 42.172 34.5409 42.4473 34.4765L48.0855 49.3001L42.2801 47.2137Z" fill="#EBEBEB"/>
<path d="M41.625 20.125C41.625 17.5291 40.8552 14.9915 39.413 12.8331C37.9708 10.6748 35.921 8.99249 33.5227 7.99909C31.1244 7.00569 28.4854 6.74577 25.9394 7.2522C23.3934 7.75863 21.0548 9.00867 19.2192 10.8442C17.3837 12.6798 16.1336 15.0184 15.6272 17.5644C15.1208 20.1104 15.3807 22.7494 16.3741 25.1477C17.3675 27.546 19.0498 29.5959 21.2081 31.038C23.3665 32.4802 25.9041 33.25 28.5 33.25C31.9798 33.2461 35.3159 31.8621 37.7765 29.4015C40.2371 26.9409 41.6211 23.6048 41.625 20.125ZM28.5 31.5C26.2502 31.5 24.051 30.8329 22.1804 29.583C20.3098 28.3331 18.8518 26.5565 17.9909 24.478C17.1299 22.3995 16.9047 20.1124 17.3436 17.9059C17.7825 15.6993 18.8658 13.6725 20.4567 12.0817C22.0475 10.4908 24.0743 9.40748 26.2809 8.96857C28.4874 8.52967 30.7745 8.75493 32.853 9.61588C34.9315 10.4768 36.7081 11.9348 37.958 13.8054C39.2079 15.676 39.875 17.8752 39.875 20.125C39.8716 23.1408 38.6721 26.0321 36.5396 28.1646C34.4071 30.2971 31.5158 31.4966 28.5 31.5Z" fill="#EBEBEB"/>
<path d="M35.4607 17.2227L31.1942 16.6028L29.2862 12.737C29.2057 12.6006 29.091 12.4875 28.9534 12.4089C28.8158 12.3304 28.6601 12.2891 28.5017 12.2891C28.3433 12.2891 28.1876 12.3304 28.05 12.4089C27.9125 12.4875 27.7978 12.6006 27.7173 12.737L25.8093 16.6028L21.5428 17.2227C21.3811 17.2461 21.2292 17.3143 21.1043 17.4195C20.9793 17.5247 20.8864 17.6628 20.8359 17.8182C20.7853 17.9735 20.7793 18.1399 20.8185 18.2985C20.8576 18.457 20.9404 18.6015 21.0574 18.7155L24.1455 21.7246L23.4167 25.9736C23.3892 26.1344 23.4072 26.2997 23.4687 26.4508C23.5301 26.6019 23.6326 26.7329 23.7646 26.8288C23.8966 26.9247 24.0527 26.9819 24.2154 26.9937C24.3781 27.0056 24.5409 26.9718 24.6854 26.896L28.5017 24.8901L32.3179 26.896C32.4623 26.9718 32.6251 27.0056 32.7878 26.9937C32.9506 26.9819 33.1067 26.9247 33.2387 26.8288C33.3706 26.7329 33.4731 26.6019 33.5346 26.4508C33.5961 26.2997 33.6141 26.1344 33.5866 25.9736L32.8577 21.7246L35.9459 18.7155C36.0629 18.6015 36.1456 18.457 36.1848 18.2985C36.2239 18.1399 36.2179 17.9735 36.1674 17.8182C36.1169 17.6628 36.0239 17.5247 35.899 17.4195C35.7741 17.3143 35.6222 17.2461 35.4605 17.2227H35.4607ZM31.3071 20.7927C31.2056 20.8918 31.1297 21.0141 31.0859 21.149C31.0422 21.2839 31.0318 21.4275 31.0558 21.5673L31.5625 24.5222L28.9084 23.1271C28.7829 23.0612 28.6433 23.0267 28.5015 23.0267C28.3598 23.0267 28.2201 23.0612 28.0947 23.1271L25.441 24.5218L25.9477 21.5669C25.9716 21.4271 25.9613 21.2836 25.9175 21.1487C25.8737 21.0138 25.7978 20.8915 25.6964 20.7924L23.5492 18.6997L26.5161 18.2686C26.6565 18.2483 26.7899 18.194 26.9047 18.1105C27.0194 18.0271 27.1122 17.917 27.1749 17.7896L28.5017 15.1016L29.8287 17.7898C29.8914 17.9171 29.9842 18.0273 30.0989 18.1107C30.2137 18.1942 30.3471 18.2484 30.4875 18.2688L33.4544 18.6999L31.3071 20.7927Z" fill="#EBEBEB"/>
</svg>
