<svg width="56" height="56" viewBox="0 0 56 56" fill="none" xmlns="http://www.w3.org/2000/svg">
<g clip-path="url(#clip0_706_20156)">
<path d="M27.9998 8.74993C22.5451 8.74993 20.5859 6.94918 20.3812 6.74355C20.2589 6.62118 20.1755 6.46529 20.1418 6.29558C20.1081 6.12587 20.1254 5.94997 20.1916 5.7901C20.2578 5.63024 20.3699 5.4936 20.5138 5.39745C20.6576 5.3013 20.8268 5.24996 20.9998 5.24993C24.7728 5.24993 27.1939 0.530178 27.2176 0.482928C27.2985 0.347723 27.4131 0.235809 27.5502 0.158103C27.6873 0.0803961 27.8422 0.0395508 27.9998 0.0395508C28.1574 0.0395508 28.3123 0.0803961 28.4494 0.158103C28.5865 0.235809 28.7011 0.347723 28.7821 0.482928C28.8057 0.530178 31.2259 5.24993 34.9998 5.24993C35.1729 5.24996 35.342 5.3013 35.4858 5.39745C35.6297 5.4936 35.7418 5.63024 35.808 5.7901C35.8743 5.94997 35.8916 6.12587 35.8578 6.29558C35.8241 6.46529 35.7408 6.62118 35.6184 6.74355C35.4137 6.94918 33.4546 8.74993 27.9998 8.74993ZM23.6161 6.44693C25.0431 6.84102 26.5196 7.02727 27.9998 6.99993C29.4798 7.02755 30.956 6.8413 32.3827 6.44693C30.5952 5.57526 29.0797 4.23192 27.9998 2.56193C26.9201 4.23236 25.4042 5.5758 23.6161 6.44693Z" fill="#AE8646"/>
<path d="M21.8743 14.0001C17.7907 14.0001 16.7118 10.9087 16.6698 10.7766C16.626 10.6451 16.6141 10.5051 16.635 10.3681C16.6559 10.2312 16.709 10.1011 16.79 9.98866C16.871 9.87622 16.9776 9.78463 17.1009 9.72143C17.2242 9.65822 17.3608 9.6252 17.4993 9.6251C20.5093 9.6251 22.9016 6.50572 22.9243 6.4751L24.3243 7.5251C22.9715 9.27316 21.1087 10.5574 18.9938 11.2001C19.379 11.5594 19.8325 11.8375 20.3274 12.0179C20.8222 12.1983 21.3483 12.2772 21.8743 12.2501V14.0001Z" fill="#AE8646"/>
<path d="M34.1258 14.0001V12.2501C34.653 12.2787 35.1805 12.2004 35.6767 12.0199C36.1729 11.8395 36.6276 11.5606 37.0133 11.2001C34.8956 10.5592 33.0301 9.27473 31.6758 7.5251L33.0758 6.4751C33.0994 6.50747 35.4917 9.6251 38.5008 9.6251C38.6394 9.6252 38.7759 9.65822 38.8992 9.72143C39.0226 9.78463 39.1291 9.87622 39.2101 9.98866C39.2911 10.1011 39.3442 10.2312 39.3651 10.3681C39.386 10.5051 39.3741 10.6451 39.3303 10.7766C39.2883 10.9087 38.2094 14.0001 34.1258 14.0001Z" fill="#AE8646"/>
<path d="M34.9998 18.375C34.1683 18.3662 33.3518 18.1528 32.6223 17.7536C31.8928 17.3544 31.2729 16.7816 30.8173 16.086C30.2171 17.3635 29.2476 18.375 27.9998 18.375C26.7521 18.375 25.7826 17.3635 25.1823 16.086C24.7267 16.7816 24.1068 17.3544 23.3773 17.7536C22.6479 18.1528 21.8313 18.3662 20.9998 18.375C19.1456 18.3409 17.3685 17.6269 16.0062 16.3686C15.8839 16.2463 15.8005 16.0904 15.7668 15.9207C15.7331 15.7509 15.7504 15.575 15.8166 15.4152C15.8828 15.2553 15.9949 15.1187 16.1388 15.0225C16.2826 14.9264 16.4518 14.875 16.6248 14.875C19.6584 14.875 22.9099 10.8684 22.9423 10.8281L24.3082 11.9219C22.8379 13.7293 20.9775 15.1804 18.8666 16.1665C19.5388 16.4637 20.2649 16.6197 20.9998 16.625C23.4244 16.625 24.4998 14.0875 24.4998 13.125C24.4998 12.8929 24.592 12.6704 24.7561 12.5063C24.9202 12.3422 25.1428 12.25 25.3748 12.25C25.6069 12.25 25.8294 12.3422 25.9935 12.5063C26.1576 12.6704 26.2498 12.8929 26.2498 13.125C26.2498 14.8146 27.2771 16.625 27.9998 16.625C28.7226 16.625 29.7498 14.8146 29.7498 13.125C29.7498 12.8929 29.842 12.6704 30.0061 12.5063C30.1702 12.3422 30.3928 12.25 30.6248 12.25C30.8569 12.25 31.0794 12.3422 31.2435 12.5063C31.4076 12.6704 31.4998 12.8929 31.4998 13.125C31.4998 14.0875 32.5752 16.625 34.9998 16.625C35.7364 16.6211 36.4642 16.466 37.1383 16.1691C35.0251 15.1831 33.1629 13.731 31.6914 11.9219L33.0573 10.8281C33.0897 10.8684 36.3412 14.875 39.3748 14.875C39.5479 14.875 39.717 14.9264 39.8609 15.0225C40.0047 15.1187 40.1168 15.2553 40.183 15.4152C40.2493 15.575 40.2666 15.7509 40.2328 15.9207C40.1991 16.0904 40.1158 16.2463 39.9935 16.3686C38.6311 17.6269 36.854 18.3409 34.9998 18.375Z" fill="#AE8646"/>
<path d="M37.6247 26.2501C36.4666 26.2396 35.3277 25.9521 34.3034 25.4116C33.2791 24.871 32.399 24.0931 31.7368 23.1429C30.9826 24.8886 29.6237 26.2501 27.9997 26.2501C26.3757 26.2501 25.0168 24.8886 24.2626 23.1429C23.6004 24.0931 22.7203 24.871 21.696 25.4116C20.6717 25.9521 19.5329 26.2396 18.3747 26.2501C17.2163 26.2398 16.0758 25.9638 15.0409 25.4434C14.006 24.9229 13.1043 24.1718 12.4055 23.2479C12.3146 23.1167 12.2614 22.9631 12.2516 22.8037C12.2419 22.6444 12.2758 22.4854 12.3499 22.344C12.424 22.2026 12.5354 22.0842 12.6719 22.0015C12.8085 21.9188 12.9651 21.8751 13.1247 21.8751C17.155 21.8751 20.2288 17.0818 20.2595 17.0337L21.7408 17.9656C21.614 18.1668 18.9732 22.3021 14.9937 23.3731C15.9688 24.1052 17.1554 24.5007 18.3747 24.5001C21.7872 24.5001 23.6247 21.3947 23.6247 20.1251C23.6247 19.893 23.7169 19.6704 23.881 19.5063C24.0451 19.3423 24.2676 19.2501 24.4997 19.2501C24.7318 19.2501 24.9543 19.3423 25.1184 19.5063C25.2825 19.6704 25.3747 19.893 25.3747 20.1251C25.3747 22.2513 26.724 24.5001 27.9997 24.5001C29.2755 24.5001 30.6247 22.2513 30.6247 20.1251C30.6247 19.893 30.7169 19.6704 30.881 19.5063C31.0451 19.3423 31.2676 19.2501 31.4997 19.2501C31.7318 19.2501 31.9543 19.3423 32.1184 19.5063C32.2825 19.6704 32.3747 19.893 32.3747 20.1251C32.3747 21.3947 34.2122 24.5001 37.6247 24.5001C38.8435 24.4991 40.0292 24.1031 41.004 23.3713C39.1332 22.784 37.45 21.7148 36.1232 20.2712L37.3779 19.0523C38.6292 20.3403 40.5997 21.8751 42.8747 21.8751C43.0343 21.8751 43.1909 21.9188 43.3275 22.0015C43.464 22.0842 43.5754 22.2026 43.6495 22.344C43.7236 22.4854 43.7575 22.6444 43.7478 22.8037C43.738 22.9631 43.6848 23.1167 43.5939 23.2479C42.8951 24.1718 41.9934 24.9229 40.9585 25.4434C39.9236 25.9638 38.7831 26.2398 37.6247 26.2501Z" fill="#AE8646"/>
<path d="M39.3747 35C37.9542 34.9706 36.5686 34.5543 35.3671 33.7961C34.1656 33.0378 33.1936 31.9663 32.5558 30.6967C31.6519 33.0548 29.9535 35 27.9997 35C26.0458 35 24.3474 33.0548 23.4435 30.6967C22.8057 31.9663 21.8337 33.0378 20.6322 33.7961C19.4307 34.5543 18.0451 34.9706 16.6247 35C12.0125 35 9.06028 31.325 8.93778 31.1666C8.83611 31.0376 8.7728 30.8826 8.7551 30.7193C8.73739 30.556 8.76601 30.391 8.83767 30.2432C8.90933 30.0954 9.02114 29.9708 9.16032 29.8835C9.29949 29.7963 9.46041 29.75 9.62466 29.75C12.0461 29.6833 14.3427 28.6605 16.0122 26.9053L17.2372 28.1496C15.6949 29.7265 13.7284 30.8223 11.5759 31.304C12.9896 32.5061 14.7698 33.1923 16.6247 33.25C20.8667 33.25 22.7497 28.812 22.7497 27.125C22.7497 26.8929 22.8418 26.6703 23.0059 26.5062C23.17 26.3421 23.3926 26.25 23.6247 26.25C23.8567 26.25 24.0793 26.3421 24.2434 26.5062C24.4075 26.6703 24.4997 26.8929 24.4997 27.125C24.4997 29.9302 26.3967 33.25 27.9997 33.25C29.6027 33.25 31.4997 29.9302 31.4997 27.125C31.4997 26.8929 31.5918 26.6703 31.7559 26.5062C31.92 26.3421 32.1426 26.25 32.3747 26.25C32.6067 26.25 32.8293 26.3421 32.9934 26.5062C33.1575 26.6703 33.2497 26.8929 33.2497 27.125C33.2497 28.812 35.1327 33.25 39.3747 33.25C41.2276 33.1923 43.006 32.5068 44.4182 31.3057C39.5882 30.3336 36.992 26.0251 36.8713 25.8195L38.3772 24.9287C38.4069 24.9768 41.3049 29.75 46.3747 29.75C46.5389 29.75 46.6998 29.7963 46.839 29.8835C46.9782 29.9708 47.09 30.0954 47.1617 30.2432C47.2333 30.391 47.2619 30.556 47.2442 30.7193C47.2265 30.8826 47.1632 31.0376 47.0615 31.1666C46.939 31.325 43.9868 35 39.3747 35Z" fill="#AE8646"/>
<path d="M48.1264 40.25C38.2529 40.25 35.3759 37.4868 35.2578 37.3686L36.4828 36.1209C36.5056 36.1419 38.5671 37.9943 45.2984 38.4151C43.6296 37.1155 42.2411 35.4916 41.2166 33.6411L42.7828 32.8589C44.3946 36.0833 48.5342 38.5998 48.5753 38.6251C48.7391 38.7236 48.8661 38.873 48.937 39.0505C49.0079 39.228 49.0187 39.4238 48.9678 39.608C48.9169 39.7922 48.8071 39.9547 48.6552 40.0706C48.5033 40.1866 48.3176 40.2496 48.1264 40.25Z" fill="#AE8646"/>
<path d="M38.5 42C32.0075 42 29.197 40.0356 28 38.549C26.803 40.0356 23.9925 42 17.5 42C17.3164 42 17.1374 41.9422 16.9884 41.8348C16.8394 41.7275 16.728 41.5759 16.6699 41.4017C16.6118 41.2275 16.61 41.0394 16.6648 40.8641C16.7196 40.6888 16.8281 40.5352 16.975 40.425C17.1001 40.3288 20.125 37.9444 20.125 32.375H21.875C21.9503 35.1558 21.1368 37.8881 19.5528 40.1748C26.3104 39.6498 27.1381 36.5951 27.1451 36.5619C27.1875 36.3638 27.2986 36.1872 27.4588 36.0632C27.6189 35.9393 27.8178 35.876 28.0201 35.8846C28.2185 35.8868 28.4101 35.9568 28.5631 36.0831C28.7161 36.2093 28.8212 36.3842 28.861 36.5785C28.8663 36.5969 29.6931 39.6524 36.4508 40.1748C34.8654 37.8885 34.0507 35.1561 34.125 32.375H35.875C35.875 37.9978 38.9935 40.4014 39.025 40.425C39.1719 40.5352 39.2804 40.6888 39.3352 40.8641C39.39 41.0394 39.3882 41.2275 39.3301 41.4017C39.272 41.5759 39.1606 41.7275 39.0116 41.8348C38.8626 41.9422 38.6836 42 38.5 42Z" fill="#AE8646"/>
<path d="M7.87472 40.25C7.68346 40.2499 7.49749 40.1872 7.34526 40.0714C7.19303 39.9556 7.08294 39.7932 7.03182 39.6088C6.98071 39.4245 6.99139 39.2286 7.06224 39.0509C7.13308 38.8732 7.26019 38.7237 7.4241 38.6251C7.46522 38.5998 11.6048 36.0833 13.2166 32.8589L14.7829 33.6411C13.7576 35.4906 12.3689 37.1136 10.7001 38.4125C17.442 37.9943 19.4851 36.1489 19.5061 36.1279L20.7434 37.3651C20.6252 37.4868 17.7482 40.25 7.87472 40.25Z" fill="#AE8646"/>
<path d="M30.625 56H25.375C24.6788 56 24.0111 55.7235 23.5188 55.2312C23.0266 54.7389 22.75 54.0712 22.75 53.375V51.7414C22.75 51.6244 22.7576 51.5075 22.7727 51.3914L24.1334 41.874L25.8667 42.1216L24.507 51.6338C24.5022 51.6694 24.4999 51.7054 24.5 51.7414V53.375C24.5 53.6071 24.5922 53.8297 24.7563 53.9937C24.9204 54.1578 25.1429 54.25 25.375 54.25H30.625C30.8571 54.25 31.0796 54.1578 31.2437 53.9937C31.4078 53.8297 31.5 53.6071 31.5 53.375V51.7414C31.5 51.7025 31.4974 51.6636 31.4921 51.625L30.1332 42.1243L31.8666 41.8767L33.2264 51.3862C33.2419 51.5039 33.2498 51.6226 33.25 51.7414V53.375C33.25 53.7197 33.1821 54.0611 33.0502 54.3796C32.9183 54.698 32.7249 54.9874 32.4812 55.2312C32.2374 55.4749 31.948 55.6683 31.6295 55.8002C31.3111 55.9321 30.9697 56 30.625 56Z" fill="#AE8646"/>
</g>
<defs>
<clipPath id="clip0_706_20156">
<rect width="56" height="56" fill="white"/>
</clipPath>
</defs>
</svg>
