<svg width="56" height="56" viewBox="0 0 56 56" fill="none" xmlns="http://www.w3.org/2000/svg">
<path d="M28.9641 26.2727C33.3483 25.0614 36.5666 20.0005 36.5666 14.1172C36.5666 7.26273 32.2463 1.68652 26.9356 1.68652C21.6254 1.68652 17.3047 7.26273 17.3047 14.1172C17.3047 20.0005 20.5235 25.0614 24.9076 26.2727L24.2497 28.2863C24.1828 28.491 24.2178 28.715 24.3442 28.8895C24.4706 29.0636 24.6727 29.1669 24.8879 29.1669H26.2646C26.2646 29.1752 26.2633 29.1835 26.2633 29.1918V48.8439C26.2633 49.2149 26.5638 49.5158 26.9352 49.5158C27.3062 49.5158 27.6071 49.2149 27.6071 48.8439V29.1918C27.6071 29.1835 27.6063 29.1752 27.6058 29.1669H28.9825C29.1973 29.1669 29.3998 29.0636 29.5258 28.8895C29.6522 28.715 29.6877 28.491 29.6207 28.2863L28.9641 26.2727ZM25.8149 27.8234L26.4146 25.987C26.475 25.8011 26.4518 25.5981 26.3508 25.431C26.2497 25.2635 26.0809 25.1484 25.8884 25.1161C21.761 24.4153 18.6485 19.6868 18.6485 14.1167C18.6485 8.00378 22.3669 3.02994 26.9356 3.02994C31.5048 3.02994 35.2228 8.00378 35.2228 14.1167C35.2228 19.6868 32.1107 24.4153 27.9838 25.1161C27.7909 25.1484 27.622 25.2635 27.521 25.431C27.4199 25.5981 27.3967 25.8011 27.4575 25.987L28.0568 27.8234H25.8149Z" fill="#AE8646"/>
<path d="M27.8814 6.60576C28.4094 6.81486 29.5691 7.62634 30.5691 9.34115C31.3727 10.7187 32.2839 13.0906 32.0608 16.5696C32.0368 16.9397 32.3176 17.2595 32.6877 17.2831C32.7026 17.284 32.7175 17.2844 32.7315 17.2844C33.0858 17.284 33.3784 17.0093 33.4012 16.6558C33.6462 12.8386 32.6273 10.2029 31.7297 8.66398C30.6225 6.76456 29.231 5.69542 28.3766 5.3564C28.0319 5.21991 27.6413 5.38877 27.5043 5.73348C27.3679 6.07863 27.5367 6.46928 27.8814 6.60576Z" fill="#AE8646"/>
<path d="M43.2845 16.5957C38.5915 16.5957 34.7734 21.5127 34.7734 27.5565C34.7734 32.7045 37.5744 37.1385 41.403 38.2496L40.8545 39.9294C40.7875 40.1341 40.823 40.3581 40.949 40.5322C41.0754 40.7068 41.2775 40.81 41.4927 40.81H42.6126V48.8443C42.6126 49.2152 42.9136 49.5162 43.2845 49.5162C43.6555 49.5162 43.9564 49.2152 43.9564 48.8443V40.8096H45.0763C45.2915 40.8091 45.4936 40.7059 45.6201 40.5318C45.7465 40.3577 45.7815 40.1333 45.7146 39.929L45.166 38.2492C48.9946 37.1376 51.7956 32.7036 51.7956 27.5561C51.7956 21.5131 47.9775 16.5957 43.2845 16.5957ZM44.1874 37.0978C43.9945 37.1306 43.8256 37.2452 43.7246 37.4128C43.6235 37.5799 43.6004 37.7828 43.6612 37.9688L44.1498 39.4657H42.4197L42.9083 37.9688C42.9691 37.7828 42.9455 37.5799 42.8444 37.4128C42.7434 37.2452 42.5745 37.1306 42.382 37.0978C38.8107 36.4915 36.1173 32.3895 36.1173 27.5565C36.1173 22.2537 39.3326 17.9396 43.2845 17.9396C47.2365 17.9396 50.4517 22.2537 50.4517 27.5565C50.4517 32.3895 47.7588 36.4915 44.1874 37.0978Z" fill="#AE8646"/>
<path d="M44.5758 19.8132C44.2311 19.6763 43.8405 19.8451 43.7036 20.1903C43.5671 20.5354 43.7359 20.9256 44.0806 21.0625C45.351 21.5665 48.0221 24.4392 47.6848 29.6974C47.6612 30.0675 47.942 30.3868 48.3121 30.4109C48.3266 30.4118 48.3414 30.4122 48.3559 30.4122C48.7098 30.4118 49.0029 30.1366 49.0256 29.7836C49.2413 26.4222 48.3432 24.0998 47.5514 22.7428C46.5715 21.0625 45.3361 20.1146 44.5758 19.8132Z" fill="#AE8646"/>
<path d="M12.6021 20.7866C8.52683 20.7866 5.21094 25.0443 5.21094 30.2776C5.21094 34.6902 7.59462 38.4978 10.8676 39.507L10.4284 40.8526C10.3619 41.0573 10.3969 41.2817 10.5234 41.4558C10.6498 41.6299 10.8519 41.7332 11.0671 41.7332H11.9306V48.844C11.9306 49.2149 12.2312 49.5159 12.6026 49.5159C12.9735 49.5159 13.2745 49.2149 13.2745 48.844V41.7332H14.1376C14.3528 41.7332 14.5549 41.6299 14.6813 41.4558C14.8078 41.2817 14.8428 41.0573 14.7763 40.8526L14.3371 39.507C17.6101 38.4973 19.9933 34.6897 19.9933 30.2776C19.9933 25.0443 16.6774 20.7866 12.6021 20.7866ZM13.3598 38.3613C13.1673 38.3941 12.9985 38.5087 12.897 38.6762C12.7959 38.8434 12.7727 39.0463 12.8335 39.2322L13.2115 40.3893H11.9928L12.3707 39.2322C12.4315 39.0463 12.4083 38.8434 12.3073 38.6762C12.2062 38.5087 12.0369 38.3941 11.8445 38.3613C8.82867 37.8495 6.55479 34.3743 6.55479 30.2776C6.55479 25.7854 9.26787 22.1305 12.6021 22.1305C15.9368 22.1305 18.6495 25.7854 18.6495 30.2776C18.6495 34.3743 16.3752 37.8495 13.3598 38.3613Z" fill="#AE8646"/>
<path d="M13.748 23.5512C13.4028 23.4147 13.0122 23.5836 12.8757 23.9283C12.7388 24.2735 12.9076 24.6641 13.2528 24.8006C13.9295 25.0696 16.5949 27.2123 16.2812 32.1069C16.2576 32.477 16.5385 32.7963 16.9086 32.8204C16.923 32.8213 16.9379 32.8217 16.9523 32.8217C17.3062 32.8213 17.5993 32.5461 17.622 32.1927C17.9851 26.5364 14.8683 23.9952 13.748 23.5512Z" fill="#AE8646"/>
</svg>
