<svg width="56" height="56" viewBox="0 0 56 56" fill="none" xmlns="http://www.w3.org/2000/svg">
<path d="M44.3413 18.7185V2.59259C44.3405 1.90524 44.0671 1.24626 43.5811 0.760224C43.095 0.274189 42.4361 0.000789099 41.7487 0H13.7487C13.0613 0.000789099 12.4024 0.274189 11.9163 0.760224C11.4303 1.24626 11.1569 1.90524 11.1561 2.59259V18.7185C10.5709 18.8388 10.045 19.1572 9.66718 19.62C9.28935 20.0828 9.08269 20.6618 9.08203 21.2593V53.4074C9.08282 54.0948 9.35622 54.7537 9.84226 55.2398C10.3283 55.7258 10.9873 55.9992 11.6746 56H43.8228C44.5101 55.9992 45.1691 55.7258 45.6551 55.2398C46.1412 54.7537 46.4146 54.0948 46.4154 53.4074V21.2593C46.4147 20.6618 46.208 20.0828 45.8302 19.62C45.4524 19.1572 44.9265 18.8388 44.3413 18.7185ZM44.3413 36.2963H30.7495C30.689 36.0571 30.603 35.8251 30.493 35.6042C30.4397 35.497 30.412 35.379 30.412 35.2593C30.412 35.1396 30.4397 35.0215 30.493 34.9143C30.603 34.6934 30.689 34.4614 30.7495 34.2222H44.3413V36.2963ZM28.9225 41.5521H27.7487C27.531 41.5521 27.3189 41.6206 27.1424 41.7479C26.9658 41.8751 26.8338 42.0547 26.7649 42.2612L26.4734 43.1359L24.4132 39.4275L25.597 40.1377C25.9896 40.3744 26.4254 40.5308 26.8789 40.5977C27.3325 40.6646 27.7948 40.6407 28.2391 40.5274L28.9225 41.5521ZM18.6536 43.1359L18.3621 42.2612C18.2933 42.0547 18.1612 41.8751 17.9847 41.7479C17.8081 41.6206 17.596 41.5521 17.3783 41.5521H16.2049L16.8235 40.6241C16.9091 40.6305 16.9948 40.6347 17.0807 40.6347C17.7106 40.6346 18.3285 40.4628 18.868 40.1379L20.8962 38.9209C20.9206 38.9365 20.945 38.952 20.9698 38.9669L18.6536 43.1359ZM11.1561 36.2963V34.2222H13.7158C13.7764 34.4614 13.8624 34.6934 13.9723 34.9143C14.0256 35.0215 14.0533 35.1396 14.0533 35.2593C14.0533 35.379 14.0256 35.497 13.9723 35.6042C13.8624 35.8251 13.7764 36.0571 13.7158 36.2963H11.1561ZM15.8274 33.9867C15.6912 33.7155 15.6467 33.4074 15.7007 33.1088C15.7548 32.8101 15.9044 32.5371 16.127 32.3309C16.3497 32.1247 16.6334 31.9964 16.9353 31.9654C17.2372 31.9343 17.541 32.0023 17.8009 32.1589L19.6105 33.2447C19.5057 33.5599 19.4523 33.89 19.4524 34.2222V36.2963C19.4523 36.6284 19.5057 36.9583 19.6105 37.2734L17.8009 38.3594C17.5409 38.5155 17.2373 38.583 16.9357 38.5517C16.634 38.5205 16.3507 38.3922 16.1282 38.1861C15.9057 37.9801 15.7561 37.7074 15.7019 37.409C15.6476 37.1107 15.6917 36.8027 15.8274 36.5316C16.0239 36.1362 16.1261 35.7007 16.1261 35.2591C16.1261 34.8176 16.0239 34.3821 15.8274 33.9867ZM17.7893 17.963C17.6615 17.8585 17.5584 17.7269 17.4873 17.5779C17.4163 17.4288 17.3791 17.2659 17.3783 17.1007C17.3776 16.9356 17.4134 16.7723 17.4831 16.6227C17.5528 16.473 17.6547 16.3405 17.7816 16.2348C18.0367 16.0203 18.3631 15.9097 18.6961 15.9248C19.029 15.9399 19.3441 16.0798 19.5787 16.3165L20.0807 16.8185C20.177 16.9148 20.2913 16.9912 20.4172 17.0434C20.543 17.0955 20.6778 17.1223 20.814 17.1223C20.9502 17.1223 21.0851 17.0955 21.2109 17.0434C21.3367 16.9912 21.451 16.9148 21.5473 16.8185L22.0494 16.3164C22.284 16.0796 22.5991 15.9398 22.9321 15.9248C23.2651 15.9097 23.5915 16.0204 23.8466 16.2349C23.9734 16.3407 24.0753 16.4731 24.145 16.6228C24.2147 16.7725 24.2505 16.9357 24.2497 17.1009C24.249 17.266 24.2117 17.4289 24.1407 17.5779C24.0696 17.727 23.9665 17.8585 23.8387 17.963L22.9783 18.6667H18.6714L17.7893 17.963ZM28.6378 36.5318C28.7741 36.803 28.8186 37.1111 28.7645 37.4098C28.7105 37.7084 28.5609 37.9814 28.3382 38.1876C28.1155 38.3939 27.8319 38.5221 27.53 38.5532C27.2281 38.5842 26.9243 38.5163 26.6643 38.3596L25.3897 37.5948C25.5777 37.1878 25.6749 36.7447 25.6746 36.2963V34.2222C25.6748 33.7739 25.5775 33.3309 25.3894 32.924L26.6641 32.1592C26.9241 32.0031 27.2277 31.9356 27.5293 31.9668C27.831 31.998 28.1143 32.1263 28.3368 32.3324C28.5593 32.5384 28.7089 32.8111 28.7631 33.1095C28.8174 33.4079 28.7733 33.7158 28.6376 33.9869C28.4411 34.3824 28.3389 34.8179 28.339 35.2594C28.339 35.7009 28.4413 36.1365 28.6378 36.5318ZM23.6005 34.2222V36.2963C23.6005 36.5713 23.4913 36.8351 23.2968 37.0296C23.1023 37.2241 22.8385 37.3333 22.5635 37.3333C22.2885 37.3333 22.0247 37.2241 21.8302 37.0296C21.6357 36.8351 21.5265 36.5713 21.5265 36.2963V34.2222C21.5265 33.9472 21.6357 33.6834 21.8302 33.4889C22.0247 33.2944 22.2885 33.1852 22.5635 33.1852C22.8385 33.1852 23.1023 33.2944 23.2968 33.4889C23.4913 33.6834 23.6005 33.9472 23.6005 34.2222ZM23.6005 20.7407V31.2895C22.9296 31.0517 22.1974 31.0517 21.5265 31.2895V20.7407H23.6005ZM30.6394 32.1481C30.4654 31.6763 30.1907 31.248 29.8345 30.8931C29.4783 30.5381 29.049 30.2649 28.5766 30.0925C28.1041 29.9202 27.5998 29.8527 27.0987 29.8949C26.5976 29.9371 26.1116 30.0878 25.6746 30.3367V20.7407H43.8228C43.9603 20.7407 44.0922 20.7954 44.1894 20.8926C44.2867 20.9899 44.3413 21.1217 44.3413 21.2593V32.1481H30.6394ZM31.6591 17.963C31.5313 17.8585 31.4281 17.727 31.3571 17.5779C31.286 17.4288 31.2488 17.2659 31.248 17.1008C31.2473 16.9356 31.2831 16.7724 31.3528 16.6227C31.4225 16.473 31.5244 16.3405 31.6513 16.2348C31.9064 16.0203 32.2329 15.9096 32.5658 15.9248C32.8987 15.9399 33.2138 16.0797 33.4484 16.3165L33.9504 16.8185C34.0467 16.9148 34.1611 16.9912 34.2869 17.0434C34.4127 17.0955 34.5476 17.1223 34.6837 17.1223C34.8199 17.1223 34.9548 17.0955 35.0806 17.0434C35.2064 16.9912 35.3208 16.9148 35.4171 16.8185L35.9191 16.3164C36.1538 16.0797 36.4689 15.9399 36.8018 15.9249C37.1348 15.9098 37.4612 16.0205 37.7163 16.2349C37.8431 16.3407 37.9451 16.4731 38.0147 16.6228C38.0844 16.7725 38.1202 16.9357 38.1194 17.1008C38.1187 17.2659 38.0815 17.4288 38.0104 17.5779C37.9394 17.727 37.8363 17.8585 37.7085 17.963L36.8487 18.6667H32.5406L31.6591 17.963ZM13.2302 2.59259C13.2302 2.45507 13.2848 2.32318 13.382 2.22594C13.4793 2.1287 13.6112 2.07407 13.7487 2.07407H41.7487C41.8862 2.07407 42.0181 2.1287 42.1153 2.22594C42.2126 2.32318 42.2672 2.45507 42.2672 2.59259V18.6667H39.7804C40.148 18.0156 40.2756 17.2562 40.1409 16.5207C40.0063 15.7852 39.618 15.1202 39.0436 14.6415C38.4333 14.1281 37.6615 13.8464 36.864 13.8458C36.0665 13.8452 35.2944 14.1259 34.6834 14.6384C34.0724 14.1259 33.3002 13.8452 32.5027 13.8458C31.7052 13.8463 30.9334 14.128 30.3231 14.6414C29.7485 15.12 29.3601 15.785 29.2256 16.5207C29.0911 17.2563 29.2192 18.0158 29.5874 18.6667H25.9111C26.2786 18.0156 26.4062 17.2562 26.2716 16.5207C26.137 15.7852 25.7487 15.1203 25.1744 14.6415C24.5641 14.1282 23.7923 13.8464 22.9948 13.8458C22.1972 13.8453 21.4251 14.1259 20.814 14.6384C20.203 14.1259 19.4309 13.8452 18.6334 13.8457C17.8359 13.8462 17.0641 14.128 16.4538 14.6414C15.8792 15.12 15.4907 15.785 15.3563 16.5207C15.2218 17.2563 15.3498 18.0158 15.718 18.6667H13.2302V2.59259ZM11.6746 20.7407H19.4524V30.7314L18.868 30.3808C18.4311 30.117 17.9412 29.953 17.4335 29.9005C16.9258 29.8481 16.4127 29.9084 15.9311 30.0773C15.4494 30.2461 15.011 30.5193 14.6471 30.8773C14.2833 31.2353 14.0031 31.6693 13.8265 32.1481H11.1561V21.2593C11.1561 21.1217 11.2107 20.9899 11.308 20.8926C11.4052 20.7954 11.5371 20.7407 11.6746 20.7407ZM11.1561 53.4074V38.3704H13.8265C14.0359 38.9399 14.3926 39.4438 14.8601 39.8307L13.4047 42.0139C13.3005 42.17 13.2408 42.3515 13.2317 42.539C13.2226 42.7264 13.2645 42.9129 13.3531 43.0784C13.4416 43.2438 13.5734 43.3822 13.7344 43.4787C13.8954 43.5752 14.0795 43.6262 14.2672 43.6262H16.6309L17.4316 46.0282C17.4952 46.2192 17.6131 46.3875 17.7707 46.5126C17.9284 46.6377 18.119 46.7143 18.3194 46.7329C18.3516 46.7359 18.3842 46.7373 18.4156 46.7373C18.6005 46.7373 18.782 46.6878 18.9414 46.594C19.1007 46.5002 19.2321 46.3655 19.3219 46.2039L19.4524 45.9689V53.9259H11.6746C11.5371 53.9259 11.4052 53.8713 11.308 53.7741C11.2107 53.6768 11.1561 53.5449 11.1561 53.4074ZM21.5265 53.9259V42.2355L22.5635 40.3689L23.6005 42.2355V53.9259H21.5265ZM43.8228 53.9259H25.6746V45.9684L25.8054 46.2039C25.8952 46.3655 26.0266 46.5002 26.1859 46.594C26.3452 46.6878 26.5268 46.7373 26.7117 46.7373C26.7437 46.7373 26.7765 46.7358 26.808 46.7329C27.0084 46.7143 27.199 46.6377 27.3567 46.5126C27.5143 46.3875 27.6322 46.2192 27.6958 46.0282L28.4965 43.6262H30.8598C31.0475 43.6262 31.2317 43.5753 31.3928 43.4788C31.5538 43.3824 31.6857 43.244 31.7742 43.0785C31.8628 42.913 31.9048 42.7266 31.8957 42.5391C31.8867 42.3516 31.8269 42.1701 31.7228 42.0139L30.0065 39.4394C30.1037 39.3273 30.1937 39.2091 30.2761 39.0857C30.4246 38.8621 30.5465 38.6221 30.6394 38.3704H44.3413V53.4074C44.3413 53.5449 44.2867 53.6768 44.1894 53.7741C44.0922 53.8713 43.9603 53.9259 43.8228 53.9259ZM16.476 9.86481L20.1575 12.8769C20.3427 13.0285 20.5748 13.1113 20.8142 13.1113C21.0536 13.1113 21.2856 13.0285 21.4709 12.8769L25.1523 9.86481C25.5167 9.56673 25.8107 9.19181 26.0132 8.76686C26.2158 8.34192 26.3219 7.87746 26.3241 7.40671C26.3262 6.93597 26.2243 6.47057 26.0256 6.04381C25.8268 5.61705 25.5363 5.23948 25.1746 4.93811C24.5643 4.42473 23.7926 4.14297 22.9951 4.14238C22.1975 4.14179 21.4254 4.4224 20.8143 4.93487C20.2033 4.42237 19.4311 4.14172 18.6336 4.14229C17.8361 4.14286 17.0644 4.42461 16.4541 4.93798C16.0924 5.23935 15.8018 5.61693 15.6031 6.04369C15.4044 6.47046 15.3025 6.93586 15.3046 7.40662C15.3067 7.87738 15.4128 8.34185 15.6154 8.76681C15.8179 9.19176 16.1116 9.56671 16.476 9.86481ZM17.7816 6.53139C18.0367 6.31683 18.3631 6.20612 18.6961 6.22125C19.029 6.23638 19.3441 6.37625 19.5787 6.61305L20.0807 7.11511C20.177 7.21141 20.2913 7.28781 20.4172 7.33993C20.543 7.39205 20.6778 7.41887 20.814 7.41887C20.9502 7.41887 21.0851 7.39205 21.2109 7.33993C21.3367 7.28781 21.451 7.21141 21.5473 7.11511L22.0494 6.61305C22.284 6.37631 22.5991 6.2365 22.9321 6.22142C23.2651 6.20633 23.5915 6.31708 23.8466 6.53165C23.9734 6.63736 24.0753 6.7698 24.145 6.9195C24.2147 7.06919 24.2505 7.23244 24.2497 7.39756C24.249 7.56268 24.2117 7.72559 24.1407 7.87464C24.0696 8.02369 23.9665 8.15519 23.8387 8.25974L20.8135 10.7344L17.7893 8.25961C17.6615 8.15503 17.5584 8.0235 17.4873 7.87443C17.4163 7.72536 17.3791 7.56243 17.3783 7.3973C17.3776 7.23217 17.4134 7.06892 17.4831 6.91923C17.5528 6.76953 17.6547 6.63709 17.7816 6.53139ZM30.3453 9.86481L34.0268 12.8769C34.2121 13.0285 34.4441 13.1113 34.6835 13.1113C34.9229 13.1113 35.1549 13.0285 35.3402 12.8769L39.0217 9.86481C39.386 9.56672 39.68 9.19179 39.8825 8.76684C40.0851 8.34189 40.1912 7.87743 40.1933 7.40668C40.1954 6.93594 40.0935 6.47054 39.8948 6.04379C39.6961 5.61703 39.4055 5.23947 39.0438 4.93811C38.4336 4.42472 37.6618 4.14295 36.8643 4.14235C36.0668 4.14176 35.2947 4.42238 34.6836 4.93487C34.0726 4.42241 33.3004 4.1418 32.5029 4.14237C31.7055 4.14294 30.9337 4.42465 30.3234 4.93798C29.9618 5.23935 29.6712 5.61693 29.4724 6.04369C29.2737 6.47046 29.1718 6.93586 29.1739 7.40662C29.176 7.87738 29.2822 8.34185 29.4847 8.76681C29.6873 9.19176 29.981 9.56671 30.3453 9.86481ZM31.6505 6.53139C31.9056 6.31683 32.2321 6.20612 32.565 6.22125C32.898 6.23638 33.2131 6.37625 33.4476 6.61305L33.9497 7.11511C34.046 7.21141 34.1603 7.28781 34.2861 7.33993C34.4119 7.39205 34.5468 7.41887 34.683 7.41887C34.8192 7.41887 34.954 7.39205 35.0798 7.33993C35.2057 7.28781 35.32 7.21141 35.4163 7.11511L35.9183 6.61305C36.153 6.37636 36.4681 6.23659 36.801 6.22151C37.134 6.20643 37.4604 6.31714 37.7155 6.53165C37.8424 6.63736 37.9443 6.7698 38.014 6.91949C38.0837 7.06918 38.1194 7.23241 38.1187 7.39753C38.1179 7.56264 38.0807 7.72555 38.0097 7.8746C37.9386 8.02365 37.8355 8.15517 37.7078 8.25974L34.6839 10.7344L31.6592 8.25961C31.5314 8.15505 31.4283 8.02354 31.3572 7.87447C31.2861 7.7254 31.2489 7.56247 31.2482 7.39733C31.2474 7.23219 31.2832 7.06893 31.3529 6.91923C31.4226 6.76953 31.5237 6.63709 31.6505 6.53139Z" fill="#AE8646"/>
</svg>
