<svg width="56" height="56" viewBox="0 0 56 56" fill="none" xmlns="http://www.w3.org/2000/svg">
<path d="M49.8794 11.5553C49.8087 11.424 49.7057 11.3128 49.5799 11.2325C49.4543 11.1522 49.3101 11.1053 49.1612 11.0964C48.5217 11.0566 47.8802 11.0617 47.2414 11.1116C47.3871 10.2354 47.2612 9.33554 46.8808 8.53284C46.5005 7.73014 45.8837 7.06295 45.1133 6.62077C44.3429 6.1786 43.4557 5.98258 42.5708 6.05901C41.6858 6.13544 40.8453 6.48067 40.1622 7.04839C39.8921 6.46504 39.5806 5.90174 39.2302 5.36279C39.1456 5.24058 39.0325 5.1409 38.9006 5.07244C38.7687 5.00398 38.622 4.96881 38.4734 4.97C38.3243 4.97463 38.1788 5.01725 38.0507 5.0938C37.9227 5.17036 37.8163 5.27833 37.7416 5.4075L36.7656 7.09791L30.6478 1.855C29.9014 1.24203 28.9656 0.906898 27.9998 0.906738C27.034 0.906579 26.0981 1.2414 25.3516 1.85413L19.2337 7.09783L18.2576 5.4075C18.1829 5.27833 18.0765 5.17036 17.9484 5.0938C17.8204 5.01725 17.6749 4.97463 17.5257 4.97C17.3771 4.96846 17.2304 5.00351 17.0985 5.07205C16.9666 5.1406 16.8536 5.24053 16.7695 5.36305C16.4194 5.90145 16.1083 6.46416 15.8384 7.0469C15.1547 6.47989 14.3141 6.13537 13.4291 6.05953C12.5442 5.98368 11.6572 6.18012 10.887 6.62254C10.1168 7.06495 9.50023 7.73219 9.1199 8.53485C8.73958 9.33751 8.61366 10.2372 8.75903 11.1135C8.11992 11.0628 7.47804 11.0572 6.83814 11.0967C6.68927 11.1056 6.54516 11.1525 6.41949 11.2328C6.29382 11.3131 6.19076 11.4241 6.12009 11.5555C6.04942 11.6868 6.0135 11.834 6.01572 11.9831C6.01795 12.1323 6.05825 12.2783 6.1328 12.4075L8.94042 17.2702C8.85199 17.3899 8.79598 17.5303 8.77784 17.678C8.67617 18.7103 8.94464 19.7451 9.53533 20.5978L20.9182 36.934C20.7132 37.0142 20.519 37.1195 20.34 37.2475C20.0009 37.489 19.7248 37.8085 19.535 38.1791C19.3453 38.5497 19.2474 38.9604 19.2497 39.3768V43.2705C19.2505 43.9652 19.5261 44.6313 20.0162 45.1236C20.5063 45.6158 21.1713 45.8943 21.8659 45.8981C22.1511 45.8978 22.4343 45.8513 22.7046 45.7606L23.1097 45.6255L21.0253 54.04C20.9934 54.1689 20.9913 54.3034 21.0191 54.4332C21.0469 54.563 21.1039 54.6848 21.1857 54.7894C21.2676 54.8939 21.3721 54.9785 21.4915 55.0366C21.6109 55.0948 21.7419 55.125 21.8747 55.125H34.1247C34.2574 55.125 34.3885 55.0948 34.5078 55.0366C34.6272 54.9785 34.7318 54.8939 34.8136 54.7894C34.8954 54.6848 34.9524 54.563 34.9802 54.4332C35.008 54.3034 35.0059 54.1689 34.974 54.04L32.8894 45.6257L33.2946 45.7608C33.5649 45.8516 33.8481 45.898 34.1332 45.8984C34.8279 45.8946 35.4929 45.6161 35.9831 45.1238C36.4733 44.6315 36.7488 43.9653 36.7497 43.2706V39.3769C36.752 38.9605 36.6541 38.5497 36.4643 38.1791C36.2746 37.8085 35.9985 37.489 35.6593 37.2474C35.4805 37.1196 35.2865 37.0144 35.0818 36.9342L46.464 20.5975C47.0818 19.7119 47.3494 18.6287 47.215 17.5572C47.1989 17.435 47.157 17.3176 47.0919 17.2128L49.8665 12.4072C49.941 12.2781 49.9813 12.132 49.9835 11.983C49.9858 11.8339 49.9499 11.6867 49.8794 11.5553ZM44.2414 8.14931C44.7895 8.46304 45.2048 8.9653 45.41 9.56253C45.6152 10.1598 45.5964 10.8112 45.3569 11.3956C43.9805 11.7048 42.6618 12.2302 41.4498 12.952C41.4684 11.5543 41.2698 10.1621 40.8612 8.82534C41.2475 8.32275 41.8029 7.97727 42.4244 7.85296C43.046 7.72865 43.6916 7.83395 44.2414 8.14931ZM38.4988 7.5964C39.5133 9.65729 39.9025 11.97 39.6183 14.2495C38.4216 15.2656 37.4093 16.4805 36.6258 17.8409L35.578 19.6559C35.3883 19.7271 35.1923 19.8072 35.0005 19.8817V13.6571L38.4988 7.5964ZM26.4906 3.18299C26.9161 2.8338 27.4494 2.64302 27.9998 2.64318C28.5502 2.64334 29.0835 2.83443 29.5087 3.18386L35.8754 8.63984L34.9997 10.1566V9.625C34.9997 9.47584 34.9616 9.32914 34.8889 9.19885C34.8163 9.06857 34.7116 8.95901 34.5847 8.88059C34.4578 8.80216 34.313 8.75748 34.164 8.75078C34.0149 8.74408 33.8667 8.77559 33.7333 8.84231C33.1596 9.13428 32.6075 9.46693 32.0813 9.83772C31.7724 9.00607 31.2168 8.28864 30.4889 7.78148C29.7609 7.27432 28.8955 7.00164 28.0083 6.99995C27.1211 6.99825 26.2546 7.26763 25.5248 7.772C24.795 8.27638 24.2366 8.99168 23.9245 9.82214C23.3953 9.45716 22.8411 9.12969 22.2661 8.84214C22.1326 8.77541 21.9844 8.7439 21.8353 8.75061C21.6863 8.75732 21.5415 8.80201 21.4146 8.88046C21.2877 8.9589 21.1829 9.06848 21.1103 9.19879C21.0377 9.32911 20.9996 9.47582 20.9997 9.625V10.1566L20.124 8.63984L26.4906 3.18299ZM28.952 16.3468C29.8458 14.2297 31.3397 12.4205 33.2497 11.1426V20.5942C32.1071 21.0814 30.9376 21.6211 29.7497 22.2304V20.9513C29.7513 19.3819 29.4814 17.8241 28.952 16.3468ZM25.4115 11.0105C25.4963 10.3828 25.8062 9.80733 26.2837 9.39119C26.7612 8.97505 27.3736 8.74659 28.0069 8.74837C28.6403 8.75015 29.2514 8.98203 29.7266 9.40085C30.2017 9.81966 30.5084 10.3969 30.5897 11.025C29.5663 11.9794 28.6975 13.0871 28.0144 14.3084C27.3255 13.0791 26.4471 11.9661 25.4115 11.0105ZM27.9997 20.9513V23.1706C27.6686 23.3567 27.3365 23.5537 27.0045 23.7502C25.5759 22.9086 24.1465 22.1574 22.7497 21.4874V11.14C24.3696 12.2118 25.6976 13.6697 26.6141 15.3824C27.5305 17.0951 28.0067 19.0088 27.9997 20.9513ZM17.5005 7.5964L20.9997 13.6571V20.656L19.374 17.8413C18.5907 16.4817 17.5783 15.2676 16.3815 14.2528C16.0965 11.9723 16.4855 9.6583 17.5005 7.5964ZM10.5347 9.74295C10.6607 9.27091 10.9162 8.84355 11.2725 8.50922C11.6287 8.17489 12.0714 7.94692 12.5505 7.85111C13.0296 7.75531 13.5259 7.79548 13.9834 7.9671C14.4408 8.13871 14.8411 8.43491 15.1389 8.82219C14.7295 10.161 14.5306 11.5552 14.5495 12.9551C13.3378 12.2338 12.0198 11.7084 10.6442 11.3983C10.4276 10.8733 10.3892 10.2919 10.5347 9.74295ZM8.40614 12.8439C10.345 12.9625 12.2239 13.5612 13.8739 14.5863C15.5239 15.6114 16.8931 17.0306 17.8584 18.7163L18.3602 19.5852C15.9248 18.6331 13.4349 17.8267 10.9037 17.1702L8.40614 12.8439ZM22.1511 44.1012C22.0196 44.1446 21.8797 44.1563 21.7429 44.1354C21.606 44.1144 21.4761 44.0615 21.3636 43.9807C21.2504 43.9002 21.1583 43.7937 21.095 43.6701C21.0316 43.5465 20.999 43.4095 20.9997 43.2706V39.3769C20.9989 39.238 21.0316 39.101 21.0948 38.9774C21.1581 38.8538 21.2502 38.7473 21.3632 38.6667C21.4758 38.5859 21.6059 38.5329 21.7429 38.512C21.8799 38.4911 22.0199 38.5028 22.1515 38.5462L25.0241 39.5039C24.8446 39.7971 24.7097 40.1154 24.6239 40.4484H23.6247C23.3926 40.4484 23.17 40.5406 23.0059 40.7047C22.8419 40.8687 22.7497 41.0913 22.7497 41.3234C22.7497 41.5554 22.8419 41.778 23.0059 41.9421C23.17 42.1062 23.3926 42.1984 23.6247 42.1984H24.6239C24.7098 42.5315 24.8448 42.85 25.0245 43.1434L22.1511 44.1012ZM33.0066 53.375H22.9927L25.0752 44.9705L26.5263 44.4868C26.9859 44.7083 27.4895 44.8233 27.9998 44.8233C28.51 44.8233 29.0136 44.7083 29.4733 44.4868L30.9243 44.9705L33.0066 53.375ZM26.2497 41.3233C26.2497 40.9772 26.3523 40.6388 26.5446 40.351C26.7369 40.0633 27.0102 39.839 27.33 39.7065C27.6497 39.574 28.0016 39.5394 28.3411 39.6069C28.6805 39.6744 28.9924 39.8411 29.2371 40.0858C29.4818 40.3306 29.6485 40.6424 29.716 40.9819C29.7836 41.3213 29.7489 41.6732 29.6165 41.993C29.484 42.3128 29.2597 42.5861 28.9719 42.7784C28.6841 42.9706 28.3458 43.0733 27.9997 43.0733C27.5357 43.0728 27.0909 42.8882 26.7628 42.5601C26.4347 42.2321 26.2502 41.7873 26.2497 41.3233ZM34.9997 43.2706C35.0004 43.4094 34.9678 43.5464 34.9045 43.67C34.8412 43.7936 34.7492 43.9002 34.6361 43.9807C34.5236 44.0614 34.3936 44.1144 34.2568 44.1353C34.1199 44.1563 33.9801 44.1446 33.8486 44.1012L30.9747 43.1433C31.1543 42.8499 31.2893 42.5314 31.3752 42.1983H32.3747C32.6067 42.1983 32.8293 42.1061 32.9934 41.942C33.1575 41.7779 33.2497 41.5554 33.2497 41.3233C33.2497 41.0912 33.1575 40.8687 32.9934 40.7046C32.8293 40.5405 32.6067 40.4483 32.3747 40.4483H31.3754C31.2896 40.1153 31.1547 39.797 30.9752 39.5038L33.8483 38.5461C33.9798 38.5023 34.1199 38.4904 34.257 38.5114C34.394 38.5323 34.5241 38.5856 34.6366 38.6667C34.749 38.7478 34.8406 38.8545 34.9037 38.978C34.9669 39.1014 34.9997 39.2381 34.9997 39.3768V43.2706ZM32.8878 37.0223L29.4726 38.1598C29.0131 37.9386 28.5096 37.8237 27.9997 37.8237C27.4897 37.8237 26.9863 37.9386 26.5268 38.1598L23.112 37.0223L10.9709 19.5978C10.8236 19.3854 10.7089 19.1521 10.6308 18.9056C15.6819 20.2188 27.7889 24.144 35.7281 32.9458L32.8878 37.0223ZM45.0284 19.5978L36.7617 31.4628C34.3641 28.9067 31.6522 26.6648 28.6909 24.7907C33.9019 21.8672 39.5548 19.8133 45.427 18.71C45.3506 19.0281 45.2154 19.3293 45.0284 19.5978ZM45.2099 16.9719C42.8052 17.4161 40.4324 18.0185 38.1071 18.7751L38.1412 18.7159C39.1063 17.0302 40.4755 15.611 42.1254 14.5859C43.7754 13.5609 45.6544 12.9622 47.5932 12.8439L45.2099 16.9719Z" fill="#AE8646"/>
</svg>
